<svg id="Layer_1" enable-background="new 0 0 512 512" height="512" viewBox="0 0 512 512" width="512" xmlns="http://www.w3.org/2000/svg"><g><path d="m400.6 128.533h-32.133c-8.284 0-15 6.716-15 15v34.267c0 8.284 6.716 15 15 15h32.133c26.031 0 47.133 21.102 47.133 47.133v64.267c0 26.031-21.102 47.133-47.133 47.133h-32.133c-8.284 0-15 6.716-15 15v34.267c0 8.284 6.716 15 15 15h32.133c61.633 0 111.4-49.886 111.4-111.4v-64.267c0-61.632-49.886-111.4-111.4-111.4z" fill="#af6432"/><path d="m336.333 158.533h-289.2c-8.284 0-15-6.716-15-15 0-43.708 35.559-79.267 79.267-79.267 27.166 0 49.267-22.101 49.267-49.267 0-4.978 2.469-9.631 6.591-12.421 4.122-2.791 9.36-3.353 13.98-1.506l100.995 40.399c27.596 11.037 69.101 43.833 69.101 102.061-.001 8.285-6.716 15.001-15.001 15.001z" fill="#fff5e6"/><path d="m351.333 143.533c0-58.228-41.505-91.024-69.101-102.061l-90.5-36.201v153.262h144.6c8.286 0 15.001-6.716 15.001-15z" fill="#fae6c8"/><path d="m272.067 512h-160.667c-61.514 0-111.4-49.767-111.4-111.4v-257.067c0-8.284 6.716-15 15-15h353.467c8.284 0 15 6.716 15 15v257.067c0 61.523-49.777 111.4-111.4 111.4z" fill="#e9b787"/><path d="m368.467 128.533h-176.734v383.467h80.334c61.623 0 111.4-49.877 111.4-111.4v-257.067c0-8.284-6.716-15-15-15z" fill="#dc9664"/><path d="m158.533 304.2v-158.55c0-9.438 7.679-17.117 17.117-17.117h-128.501c9.438 0 17.117 7.679 17.117 17.117v158.55c0 25.915 20.953 47.133 47.133 47.133 25.916 0 47.134-20.952 47.134-47.133z" fill="#823200"/><path d="m319.2 223.867v-78.217c0-9.438 7.679-17.117 17.117-17.117h-128.5c9.438 0 17.117 7.679 17.117 17.117v78.216c0 25.989 21.144 47.133 47.134 47.133 25.988.001 47.132-21.143 47.132-47.132z" fill="#4b1e0a"/></g></svg>