<svg id="Layer_1" enable-background="new 0 0 512 512" height="512" viewBox="0 0 512 512" width="512" xmlns="http://www.w3.org/2000/svg"><g><ellipse cx="79.267" cy="79.267" fill="#af6432" rx="79.267" ry="63.2"/><ellipse cx="272.067" cy="79.267" fill="#823200" rx="79.267" ry="63.2"/><ellipse cx="448.8" cy="79.267" fill="#af6432" rx="63.2" ry="79.267"/><ellipse cx="159.6" cy="256" fill="#823200" rx="63.2" ry="79.267"/><ellipse cx="352.4" cy="256" fill="#af6432" rx="63.2" ry="79.267"/><ellipse cx="63.2" cy="432.733" fill="#af6432" rx="63.2" ry="79.267"/><g fill="#823200"><ellipse cx="239.933" cy="432.734" rx="79.267" ry="63.2"/><ellipse cx="432.733" cy="432.734" rx="79.267" ry="63.2"/><path d="m79.267 142.467v-126.4c49.115 0 79.267 32.32 79.267 63.2-.001 33.556-33.418 63.2-79.267 63.2z"/></g><path d="m272.067 142.467v-126.4c49.115 0 79.267 32.32 79.267 63.2-.001 33.556-33.418 63.2-79.267 63.2z" fill="#4b1e0a"/><path d="m239.933 495.934v-126.4c49.115 0 79.267 32.32 79.267 63.2 0 33.556-33.417 63.2-79.267 63.2z" fill="#4b1e0a"/><path d="m432.733 495.934v-126.4c49.115 0 79.267 32.32 79.267 63.2 0 33.556-33.417 63.2-79.267 63.2z" fill="#4b1e0a"/><path d="m512 79.267c0 49.089-32.294 79.267-63.2 79.267v-158.534c33.557 0 63.2 33.417 63.2 79.267z" fill="#823200"/><path d="m415.6 256c0 49.089-32.294 79.267-63.2 79.267v-158.534c33.557 0 63.2 33.418 63.2 79.267z" fill="#823200"/><path d="m222.8 256c0 49.089-32.294 79.267-63.2 79.267v-158.534c33.557 0 63.2 33.418 63.2 79.267z" fill="#4b1e0a"/><path d="m126.4 432.733c0 49.089-32.294 79.267-63.2 79.267v-158.533c33.557 0 63.2 33.417 63.2 79.266z" fill="#823200"/></g></svg>