<svg id="Layer_1" enable-background="new 0 0 512 512" height="512" viewBox="0 0 512 512" width="512" xmlns="http://www.w3.org/2000/svg"><g><path d="m448.8 512h-385.6c-4.195 0-8.198-1.757-11.038-4.844s-4.258-7.222-3.91-11.402l32.133-385.6c.648-7.774 7.147-13.754 14.948-13.754h321.333c7.801 0 14.3 5.979 14.948 13.754l32.133 385.6c.348 4.181-1.07 8.315-3.91 11.402s-6.842 4.844-11.037 4.844z" fill="#ff87c8"/><path d="m459.838 507.156c2.84-3.087 4.258-7.222 3.91-11.402l-32.133-385.6c-.648-7.774-7.147-13.754-14.948-13.754h-160.667v415.6h192.8c4.195 0 8.198-1.757 11.038-4.844z" fill="#f05596"/><path d="m336.333 224.934h-160.666c-8.284 0-15 6.716-15 15v160.666c0 8.284 6.716 15 15 15h160.667c8.284 0 15-6.716 15-15v-160.666c-.001-8.285-6.716-15-15.001-15z" fill="#af6432"/><path d="m351.333 400.6v-160.666c0-8.284-6.716-15-15-15h-80.333v190.666h80.333c8.285 0 15-6.716 15-15z" fill="#823200"/><g fill="#4b1e0a"><path d="m336.333 174.6c-8.284 0-15-6.716-15-15v-64.267c0-36.024-29.308-65.333-65.333-65.333s-65.333 29.309-65.333 65.333v64.267c0 8.284-6.716 15-15 15s-15-6.716-15-15v-64.267c0-52.566 42.766-95.333 95.333-95.333s95.333 42.767 95.333 95.333v64.267c0 8.284-6.715 15-15 15z"/><path d="m276 385.6h40.333c2.761 0 5-2.239 5-5v-40.333c0-2.761-2.239-5-5-5h-40.333c-2.761 0-5 2.239-5 5v40.333c0 2.761 2.239 5 5 5z"/><path d="m276 305.267h40.333c2.761 0 5-2.239 5-5v-40.333c0-2.761-2.239-5-5-5h-40.333c-2.761 0-5 2.239-5 5v40.333c0 2.761 2.239 5 5 5z"/></g><path d="m195.667 385.6h40.333c2.761 0 5-2.239 5-5v-40.333c0-2.761-2.239-5-5-5h-40.333c-2.761 0-5 2.239-5 5v40.333c0 2.761 2.238 5 5 5z" fill="#823200"/><path d="m195.667 305.267h40.333c2.761 0 5-2.239 5-5v-40.333c0-2.761-2.239-5-5-5h-40.333c-2.761 0-5 2.239-5 5v40.333c0 2.761 2.238 5 5 5z" fill="#823200"/><path d="m321.333 95.333v64.267c0 8.284 6.716 15 15 15s15-6.716 15-15v-64.267c0-52.566-42.766-95.333-95.333-95.333v30c36.025 0 65.333 29.309 65.333 65.333z" fill="#1e000a"/></g></svg>