<svg id="Layer_1" enable-background="new 0 0 512 512" height="512" viewBox="0 0 512 512" width="512" xmlns="http://www.w3.org/2000/svg"><g><path d="m502.74 382.325c5.605-2.322 9.26-7.792 9.26-13.858v-224.934c0-6.067-3.654-11.537-9.26-13.858-5.604-2.32-12.058-1.04-16.347 3.252l-112.466 112.467c-5.858 5.858-5.858 15.355 0 21.213l112.467 112.467c4.603 4.603 11.156 5.401 16.346 3.251z" fill="#af6432"/><path d="m512 368.467c0 6.067-3.654 11.537-9.26 13.858-5.19 2.15-11.744 1.352-16.347-3.252l-112.466-112.467c-2.929-2.929-4.394-6.768-4.394-10.606h142.467z" fill="#823200"/><path d="m9.26 382.325c-5.606-2.322-9.26-7.791-9.26-13.858v-224.934c0-6.067 3.654-11.537 9.26-13.858 5.604-2.32 12.058-1.04 16.347 3.252l112.467 112.467c5.858 5.858 5.858 15.355 0 21.213l-112.468 112.466c-4.603 4.604-11.156 5.402-16.346 3.252z" fill="#af6432"/><path d="m0 368.467c0 6.067 3.654 11.537 9.26 13.858 5.19 2.15 11.744 1.352 16.347-3.252l112.467-112.467c2.929-2.929 4.394-6.768 4.394-10.606h-142.468z" fill="#823200"/><circle cx="256" cy="256" fill="#4b1e0a" r="143.533"/><path d="m256 399.533c-79.145 0-143.533-64.389-143.533-143.533h287.066c0 79.145-64.388 143.533-143.533 143.533z" fill="#1e000a"/><ellipse cx="256" cy="256" fill="#823200" rx="143.533" ry="71.233"/><path d="m256 327.233c-45.339 0-143.533-15.208-143.533-71.233h287.066c0 55.916-97.872 71.233-143.533 71.233z" fill="#4b1e0a"/></g></svg>