<svg id="Layer_1" enable-background="new 0 0 512 512" height="512" viewBox="0 0 512 512" width="512" xmlns="http://www.w3.org/2000/svg"><path d="m502.74 129.675c-5.603-2.32-12.057-1.038-16.347 3.252l-90.572 90.573c-14.765-63.542-71.851-111.033-139.821-111.033s-125.056 47.491-139.821 111.033l-90.573-90.573c-4.289-4.292-10.743-5.572-16.347-3.252-5.605 2.322-9.259 7.791-9.259 13.858v224.934c0 6.067 3.654 11.537 9.26 13.858 5.19 2.15 11.744 1.352 16.347-3.252l90.573-90.573c14.764 63.542 71.85 111.033 139.82 111.033s125.056-47.491 139.821-111.033l90.573 90.573c4.573 4.575 11.124 5.415 16.347 3.252 5.605-2.322 9.26-7.792 9.26-13.858v-224.934c-.001-6.067-3.655-11.536-9.261-13.858zm-472.74 202.578v-152.506l76.254 76.253zm226-189.786c44.013 0 82.257 25.174 101.088 61.88-32.217-14.632-75.24-19.58-101.088-19.58-26.005 0-68.938 4.973-101.088 19.58 18.832-36.706 57.075-61.88 101.088-61.88zm0 227.066c-44.013 0-82.257-25.174-101.088-61.88 32.217 14.632 75.24 19.58 101.088 19.58 26.005 0 68.938-4.973 101.088-19.58-18.832 36.706-57.075 61.88-101.088 61.88zm0-72.3c-69.306 0-113.533-24.421-113.533-41.233s44.227-41.233 113.533-41.233 113.533 24.421 113.533 41.233-44.227 41.233-113.533 41.233zm226 35.02-76.254-76.253 76.254-76.253z"/></svg>