<svg id="Layer_1" enable-background="new 0 0 512 512" height="512" viewBox="0 0 512 512" width="512" xmlns="http://www.w3.org/2000/svg"><g><path d="m497.001 152.545h-482.002c-8.32 0-15.049 6.778-14.999 15.088.467 78.983 55.04 118.653 119.098 162.259 55.416 37.723 106.249 73.332 122.327 138.564 1.652 6.702 7.674 11.41 14.575 11.41s12.923-4.708 14.575-11.41c16.073-65.214 66.908-100.839 122.327-138.564 63.944-43.529 118.631-83.176 119.098-162.259.05-8.319-6.689-15.088-14.999-15.088z" fill="#4b1e0a"/><path d="m270.575 468.457c16.073-65.214 66.908-100.839 122.327-138.564 63.944-43.53 118.631-83.177 119.098-162.26.05-8.319-6.688-15.088-14.999-15.088h-241.001v327.322c6.9 0 12.923-4.709 14.575-11.41z" fill="#1e000a"/><path d="m304.2 380.388h.01z"/><path d="m336.333 463.8c-25.997 0-47.133-21.137-47.133-47.117v-80.349c0-9.447-7.686-17.133-17.133-17.133h-15.762c-52.816 0-95.639-42.735-95.639-95.639 0-22.648-18.316-40.928-40.912-40.928h-104.754c-8.284 0-15-6.716-15-15v-7.953c0-70.33 57.217-127.548 127.547-127.548 45.15 0 86.383 24.741 107.621 64.569l12.803 24.004c1.584 2.968 4.662 4.815 8.029 4.815s6.445-1.847 8.032-4.819c4.104-7.7 8.479-15.905 12.807-24.013 21.236-39.817 62.464-64.556 107.592-64.556h.006c70.451 0 127.563 56.996 127.563 127.563v128.437c0 25.748-20.798 47.133-47.133 47.133-25.798 0-47.133-20.846-47.133-47.133v-32.133c0-9.457-7.657-17.133-17.133-17.133-9.487 0-17.133 7.685-17.133 17.133v160.667c-.001 25.747-20.799 47.133-47.135 47.133z" fill="#af6432"/><path d="m272.067 319.2c9.447 0 17.133 7.686 17.133 17.133v80.349c0 25.98 21.137 47.117 47.133 47.117 26.336 0 47.133-21.385 47.133-47.133v-160.666c0-9.448 7.647-17.133 17.133-17.133 9.477 0 17.133 7.676 17.133 17.133v32.133c0 26.287 21.335 47.133 47.133 47.133 26.336 0 47.133-21.385 47.133-47.133v-128.437c0-70.567-57.112-127.563-127.563-127.563h-.006c-45.128 0-86.355 24.738-107.592 64.556-4.328 8.108-8.704 16.313-12.807 24.013-1.586 2.972-4.664 4.819-8.032 4.819v193.675c.102 0 .203.004.305.004z" fill="#823200"/></g></svg>