<svg id="Layer_1" enable-background="new 0 0 512 512" height="512" viewBox="0 0 512 512" width="512" xmlns="http://www.w3.org/2000/svg"><g clip-rule="evenodd" fill-rule="evenodd"><path d="m497 0h-482c-8.284 0-15 6.716-15 15v482c0 8.284 6.716 15 15 15h482c8.284 0 15-6.716 15-15v-482c0-8.284-6.716-15-15-15zm-15 482h-452v-34.267h452zm0-64.267h-452v-387.733h452z"/><path d="m135.5 206.733h48.2c25.989 0 47.133-21.144 47.133-47.133v-48.2c0-25.989-21.144-47.133-47.133-47.133h-48.2c-25.989 0-47.133 21.144-47.133 47.133v48.2c0 25.989 21.144 47.133 47.133 47.133zm-17.133-95.333c0-9.447 7.686-17.133 17.133-17.133h48.2c9.447 0 17.133 7.686 17.133 17.133v48.2c0 9.447-7.686 17.133-17.133 17.133h-48.2c-9.447 0-17.133-7.686-17.133-17.133z"/><path d="m135.5 383.467h48.2c25.989 0 47.133-21.144 47.133-47.133v-48.2c0-25.989-21.144-47.133-47.133-47.133h-48.2c-25.989 0-47.133 21.144-47.133 47.133v48.2c0 25.989 21.144 47.133 47.133 47.133zm-17.133-95.334c0-9.447 7.686-17.133 17.133-17.133h48.2c9.447 0 17.133 7.686 17.133 17.133v48.2c0 9.447-7.686 17.133-17.133 17.133h-48.2c-9.447 0-17.133-7.686-17.133-17.133z"/><path d="m328.3 206.733h48.2c25.989 0 47.133-21.144 47.133-47.133v-48.2c0-25.989-21.144-47.133-47.133-47.133h-48.2c-25.989 0-47.133 21.144-47.133 47.133v48.2c0 25.989 21.144 47.133 47.133 47.133zm-17.133-95.333c0-9.447 7.686-17.133 17.133-17.133h48.2c9.447 0 17.133 7.686 17.133 17.133v48.2c0 9.447-7.686 17.133-17.133 17.133h-48.2c-9.447 0-17.133-7.686-17.133-17.133z"/><path d="m328.3 383.467h48.2c25.989 0 47.133-21.144 47.133-47.133v-48.2c0-25.989-21.144-47.133-47.133-47.133h-48.2c-25.989 0-47.133 21.144-47.133 47.133v48.2c0 25.989 21.144 47.133 47.133 47.133zm-17.133-95.334c0-9.447 7.686-17.133 17.133-17.133h48.2c9.447 0 17.133 7.686 17.133 17.133v48.2c0 9.447-7.686 17.133-17.133 17.133h-48.2c-9.447 0-17.133-7.686-17.133-17.133z"/><circle cx="159.6" cy="135.5" r="15"/><circle cx="159.6" cy="312.233" r="15"/><circle cx="352.4" cy="135.5" r="15"/><circle cx="352.4" cy="312.233" r="15"/></g></svg>