<svg id="Layer_1" enable-background="new 0 0 512 512" height="512" viewBox="0 0 512 512" width="512" xmlns="http://www.w3.org/2000/svg"><g><path d="m352.4 271h-192.8c-8.284 0-15-6.716-15-15v-208.867c0-25.808 20.855-47.133 47.133-47.133h128.533c25.827 0 47.134 20.867 47.134 47.133v208.867c0 8.284-6.715 15-15 15z" fill="#823200"/><path d="m368.467 305.267h-224.934c-8.284 0-15 6.716-15 15v176.733c0 8.284 6.716 15 15 15h224.934c8.284 0 15-6.716 15-15v-176.733c0-8.285-6.716-15-15-15z" fill="#28825a"/><path d="m383.467 497v-176.733c0-8.284-6.716-15-15-15h-112.467v206.733h112.467c8.284 0 15-6.716 15-15z" fill="#1e5050"/><path d="m367.4 256v-208.867c0-26.266-21.307-47.133-47.133-47.133h-64.267v271h96.4c8.285 0 15-6.716 15-15z" fill="#4b1e0a"/><path d="m205.227 210.373c-5.858-5.858-5.858-15.355 0-21.213l16.066-16.066c5.857-5.858 15.355-5.858 21.213 0s5.858 15.355 0 21.213l-16.066 16.066c-5.858 5.859-15.357 5.857-21.213 0z" fill="#af6432"/><path d="m285.561 154.14-16.067-16.066c-5.857-5.858-5.858-15.355 0-21.213 5.857-5.857 15.355-5.858 21.213 0l16.067 16.066c5.857 5.858 5.858 15.355.001 21.213-5.873 5.87-15.369 5.845-21.214 0z" fill="#823200"/><path d="m256 381.852c-46.491 0-90.196-18.102-123.065-50.971-.022-.022-.044-.044-.067-.067l-32.074-32.075c-5.858-5.858-5.858-15.355 0-21.213l32.133-32.133c2.813-2.813 6.628-4.394 10.606-4.394h224.934c3.979 0 7.794 1.581 10.606 4.394l32.133 32.133c5.858 5.858 5.858 15.355 0 21.213l-32.141 32.142c-32.869 32.869-76.575 50.971-123.065 50.971z" fill="#fff5e6"/><path d="m411.206 298.74c5.858-5.858 5.858-15.355 0-21.213l-32.133-32.133c-2.813-2.813-6.628-4.394-10.606-4.394h-112.467v140.852c46.49 0 90.196-18.102 123.065-50.971z" fill="#fae6c8"/><path d="m205.227 97.907c-5.858-5.858-5.858-15.355 0-21.213l16.066-16.067c5.858-5.858 15.355-5.858 21.213 0s5.858 15.355 0 21.213l-16.066 16.067c-5.859 5.859-15.356 5.856-21.213 0z" fill="#af6432"/></g></svg>