<svg id="Layer_1" enable-background="new 0 0 512 512" height="512" viewBox="0 0 512 512" width="512" xmlns="http://www.w3.org/2000/svg"><path d="m384.437 32.133h-.006c-45.128 0-86.355 24.738-107.592 64.556-4.328 8.108-8.704 16.313-12.807 24.013-1.586 2.972-4.664 4.819-8.032 4.819s-6.445-1.847-8.029-4.815l-12.803-24.004c-21.238-39.828-62.471-64.569-107.621-64.569-70.33 0-127.547 57.218-127.547 127.547l.011 9.777c.904 79.983 60.987 120.882 119.093 160.435 55.422 37.726 106.258 73.348 122.333 138.564 1.652 6.702 7.663 11.41 14.563 11.41h.023c6.91-.011 12.919-4.74 14.552-11.455 3.91-16.076 10.214-31.136 19.057-45.439 3.086 23.015 22.84 40.827 46.701 40.827 26.336 0 47.133-21.385 47.133-47.133v-80.34c3.197-2.189 6.393-4.366 9.525-6.499 9.864-6.715 19.921-13.571 29.702-20.619 7.771 15.525 23.84 26.058 42.173 26.058 26.336 0 47.133-21.385 47.133-47.133v-128.437c.001-70.567-57.111-127.563-127.562-127.563zm-95.237 342.281c-13.821 14.959-24.843 30.62-33.216 47.246-26.841-53.152-75.83-86.5-120-116.567-52.4-35.669-98.171-66.826-105.083-122.459h88.853c22.521 0 40.912 18.206 40.912 40.928 0 52.904 42.823 95.639 95.639 95.639h15.762c9.447 0 17.133 7.686 17.133 17.133zm128.533-98.872-34.267 24.473v-44.015c0-9.462 7.671-17.133 17.133-17.133s17.133 7.671 17.133 17.133v19.542zm64.267 12.602c0 9.463-7.671 17.133-17.133 17.133s-17.133-7.671-17.133-17.133c0-.003 0-32.144 0-32.144 0-26.286-21.335-47.133-47.133-47.133-26.336 0-47.133 21.385-47.133 47.133v160.667c0 9.38-7.573 17.133-17.149 17.133-9.438 0-17.117-7.679-17.117-17.117v-80.349c0-25.989-21.144-47.133-47.133-47.133h-15.762c-36.324 0-65.639-29.398-65.639-65.655 0-39.232-31.756-70.912-70.912-70.912h-89.504c6.819-95.04 134.037-125.09 178.447-41.811l12.803 24.003c6.812 12.765 20.031 20.695 34.499 20.695s27.687-7.93 34.502-20.702c4.104-7.702 8.477-15.901 12.805-24.008 16.014-30.026 47.098-48.678 81.124-48.678h.006c53.972 0 97.563 43.686 97.563 97.563-.001 0-.001 128.444-.001 128.448z"/></svg>