<svg id="Layer_1" enable-background="new 0 0 512 512" height="512" viewBox="0 0 512 512" width="512" xmlns="http://www.w3.org/2000/svg"><g><path d="m497 512h-482c-8.284 0-15-6.716-15-15v-64.267c0-8.284 6.716-15 15-15h482c8.284 0 15 6.716 15 15v64.267c0 8.284-6.716 15-15 15z" fill="#f05596"/><path d="m512 497v-64.267c0-8.284-6.716-15-15-15h-241v94.267h241c8.284 0 15-6.716 15-15z" fill="#e12364"/><path d="m497 447.733h-482c-8.284 0-15-6.716-15-15v-417.733c0-8.284 6.716-15 15-15h482c8.284 0 15 6.716 15 15v417.733c0 8.285-6.716 15-15 15z" fill="#ff87c8"/><path d="m512 432.733v-417.733c0-8.284-6.716-15-15-15h-241v447.733h241c8.284 0 15-6.715 15-15z" fill="#f05596"/><path d="m183.7 206.733h-48.2c-25.989 0-47.133-21.144-47.133-47.133v-48.2c0-25.989 21.144-47.133 47.133-47.133h48.2c25.989 0 47.133 21.144 47.133 47.133v48.2c0 25.989-21.144 47.133-47.133 47.133z" fill="#823200"/><path d="m230.833 159.6v-48.2c0-25.989-21.144-47.133-47.133-47.133h-24.1v142.467h24.1c25.989-.001 47.133-21.145 47.133-47.134z" fill="#4b1e0a"/><circle clip-rule="evenodd" cx="159.6" cy="135.5" fill="#dc9664" fill-rule="evenodd" r="15"/><path clip-rule="evenodd" d="m174.6 135.5c0-8.28-6.72-15-15-15v30c8.28 0 15-6.72 15-15z" fill="#af6432" fill-rule="evenodd"/><path d="m183.7 383.467h-48.2c-25.989 0-47.133-21.144-47.133-47.133v-48.2c0-25.989 21.144-47.133 47.133-47.133h48.2c25.989 0 47.133 21.144 47.133 47.133v48.2c0 25.989-21.144 47.133-47.133 47.133z" fill="#823200"/><path d="m230.833 336.333v-48.2c0-25.989-21.144-47.133-47.133-47.133h-24.1v142.467h24.1c25.989 0 47.133-21.144 47.133-47.134z" fill="#4b1e0a"/><circle clip-rule="evenodd" cx="159.6" cy="312.233" fill="#dc9664" fill-rule="evenodd" r="15"/><path clip-rule="evenodd" d="m174.6 312.233c0-8.28-6.72-15-15-15v30c8.28 0 15-6.72 15-15z" fill="#af6432" fill-rule="evenodd"/><path d="m376.5 206.733h-48.2c-25.989 0-47.133-21.144-47.133-47.133v-48.2c0-25.989 21.144-47.133 47.133-47.133h48.2c25.989 0 47.133 21.144 47.133 47.133v48.2c0 25.989-21.144 47.133-47.133 47.133z" fill="#4b1e0a"/><path d="m423.633 159.6v-48.2c0-25.989-21.144-47.133-47.133-47.133h-24.1v142.467h24.1c25.989-.001 47.133-21.145 47.133-47.134z" fill="#1e000a"/><circle clip-rule="evenodd" cx="352.4" cy="135.5" fill="#af6432" fill-rule="evenodd" r="15"/><path clip-rule="evenodd" d="m367.4 135.5c0-8.28-6.72-15-15-15v30c8.28 0 15-6.72 15-15z" fill="#823200" fill-rule="evenodd"/><path d="m376.5 383.467h-48.2c-25.989 0-47.133-21.144-47.133-47.133v-48.2c0-25.989 21.144-47.133 47.133-47.133h48.2c25.989 0 47.133 21.144 47.133 47.133v48.2c0 25.989-21.144 47.133-47.133 47.133z" fill="#4b1e0a"/><path d="m423.633 336.333v-48.2c0-25.989-21.144-47.133-47.133-47.133h-24.1v142.467h24.1c25.989 0 47.133-21.144 47.133-47.134z" fill="#1e000a"/><g clip-rule="evenodd" fill-rule="evenodd"><circle cx="352.4" cy="312.233" fill="#af6432" r="15"/><path d="m367.4 312.233c0-8.28-6.72-15-15-15v30c8.28 0 15-6.72 15-15z" fill="#823200"/></g></g></svg>