<svg id="Layer_1" enable-background="new 0 0 512 512" height="512" viewBox="0 0 512 512" width="512" xmlns="http://www.w3.org/2000/svg"><path d="m304.2 415.6h-160.682c-79.136 0-143.518-64.381-143.518-143.517 0-8.284 6.716-15.017 15-15.017h160.667c8.276 0 14.987 6.702 15 14.976v.024c0 62.61 50.923 113.533 113.517 113.533h.017c8.284 0 15 6.716 15 15 0 8.276-6.702 14.987-14.976 15-.008.001-.017.001-.025.001z" fill="#4b1e0a"/><path d="m335.909 96.4h-160.259c-97.014 0-175.65 78.492-175.65 175.651v.016c0 8.284 6.716 15 15 15h33.874c10.173 0 17.527 7.856 17.527 17.134 0 25.989 21.144 47.133 47.133 47.133 26.034 0 47.134-21.061 47.134-47.133v-32.149c15.845 0 29.562-11.219 32.47-26.795 12.613-67.559 72.02-118.857 143.195-118.857 8.525 0 15.389-7.111 14.983-15.725-.38-8.068-7.33-14.275-15.407-14.275z" fill="#af6432"/><path d="m15 287.066h33.874c10.173 0 17.527 7.856 17.527 17.134 0 25.989 21.144 47.133 47.133 47.133 26.034 0 47.134-21.061 47.134-47.133v-32.134h-160.668c0 8.285 6.716 15 15 15z" fill="#823200"/><path d="m368.467 415.6h-64.267c-79.145 0-143.533-64.389-143.533-143.533 0-96.862 78.804-175.666 175.666-175.666 96.863-.001 175.667 78.803 175.667 175.665-.001 79.145-64.39 143.534-143.533 143.534z" fill="#4b1e0a"/><path d="m304.2 415.6h64.267c79.144 0 143.532-64.389 143.533-143.533h-351.333c0 79.144 64.389 143.533 143.533 143.533z" fill="#1e000a"/><path d="m336.333 160.667c-61.523 0-111.399 49.774-111.399 111.399 0 43.708 35.559 79.267 79.267 79.267h64.267c43.708 0 79.267-35.559 79.267-79.267-.002-61.522-49.775-111.399-111.402-111.399zm32.134 160.666c-27.166 0-49.267-22.101-49.267-49.267 0-9.448 7.64-17.133 17.133-17.133 9.447 0 17.134 7.686 17.134 17.133 0 8.284 6.716 15 15 15s15-6.716 15-15c0-25.989-21.145-47.133-47.134-47.133-26.029 0-47.133 21.058-47.133 47.133 0 18.602 6.442 35.729 17.211 49.267h-2.211c-27.166 0-49.267-22.101-49.267-49.267 0-44.955 36.369-81.399 81.399-81.399 44.957 0 81.4 36.369 81.4 81.399.001 27.166-22.099 49.267-49.265 49.267z" fill="#dc9664"/><g fill="#af6432"><path d="m304.2 351.333h64.267c43.708 0 79.267-35.559 79.267-79.267h-30c0 27.166-22.101 49.267-49.267 49.267s-49.267-22.101-49.267-49.267h-30c0 18.602 6.442 35.729 17.211 49.267h-2.211c-27.166 0-49.267-22.101-49.267-49.267h-30c.001 43.708 35.559 79.267 79.267 79.267z"/><path d="m368.467 287.066c8.284 0 15-6.716 15-15h-30c0 8.285 6.716 15 15 15z"/></g></svg>