<svg id="Layer_1" enable-background="new 0 0 512 512" height="512" viewBox="0 0 512 512" width="512" xmlns="http://www.w3.org/2000/svg"><g><path d="m256 512c-6.133 0-11.649-3.734-13.927-9.429l-128.533-321.333c-1.849-4.622-1.284-9.859 1.506-13.98 2.791-4.122 7.443-6.591 12.421-6.591h257.066c4.978 0 9.631 2.469 12.421 6.591 2.791 4.121 3.354 9.358 1.506 13.98l-128.533 321.333c-2.277 5.695-7.793 9.429-13.927 9.429z" fill="#e9b787"/><path d="m269.927 502.571 128.533-321.333c1.849-4.622 1.285-9.859-1.506-13.98-2.79-4.122-7.443-6.591-12.421-6.591h-128.533v351.333c6.134 0 11.65-3.734 13.927-9.429z" fill="#dc9664"/><path d="m256 271c-25.808 0-47.133-20.855-47.133-47.134v-33.199h-81.4c-8.284 0-15-6.716-15-15v-16.083c0-37.84 27.051-71.314 65.791-78.079 5.239-23.375 23.465-41.902 46.676-47.573v-18.932c0-8.284 6.716-15 15-15 48.356 0 87.799 35.769 94.361 81.604 38.97 7.092 65.239 40.862 65.239 77.979v16.083c0 8.284-6.716 15-15 15h-81.399v33.199c-.001 25.81-20.857 47.135-47.135 47.135z" fill="#4b1e0a"/><path d="m303.134 223.866v-33.199h81.399c8.284 0 15-6.716 15-15v-16.083c0-37.117-26.27-70.887-65.239-77.979-5.817-40.638-37.489-73.339-78.294-80.24v269.635c26.278 0 47.134-21.325 47.134-47.134z" fill="#1e000a"/></g></svg>