<svg id="Layer_1" enable-background="new 0 0 512 512" height="512" viewBox="0 0 512 512" width="512" xmlns="http://www.w3.org/2000/svg"><g><path d="m256 512c-25.989 0-47.133-21.144-47.133-47.133v-96.4c0-8.284 6.716-15 15-15h64.267c8.284 0 15 6.716 15 15v96.4c-.001 25.989-21.145 47.133-47.134 47.133z" fill="#e9b787"/><path d="m303.133 464.867v-96.4c0-8.284-6.716-15-15-15h-32.133v158.533c25.989 0 47.133-21.144 47.133-47.133z" fill="#dc9664"/><path d="m368.467 383.467h-224.934c-8.284 0-15-6.716-15-15v-241c0-70.285 57.181-127.467 127.467-127.467 8.284 0 15.008 6.716 15.008 15 0 13.451 12.434 17.66 18.813 17.043 6.565-.643 12.785 3.089 15.312 9.187s.771 13.131-4.326 17.325c-3.988 3.282-6.276 8.111-6.276 13.249 0 9.447 7.686 17.133 17.133 17.133 5.138 0 9.967-2.288 13.248-6.275 4.194-5.097 11.227-6.854 17.325-4.327 6.098 2.526 9.828 8.742 9.188 15.312-.599 6.152 3.536 18.812 17.043 18.812 8.284 0 15 6.716 15 15v241.008c-.001 8.284-6.717 15-15.001 15z" fill="#4b1e0a"/><path d="m383.467 368.467v-241.009c0-8.284-6.716-15-15-15-13.507 0-17.643-12.66-17.043-18.812.64-6.569-3.089-12.785-9.188-15.312-6.098-2.527-13.131-.771-17.325 4.327-3.281 3.988-8.11 6.275-13.248 6.275-9.447 0-17.133-7.686-17.133-17.133 0-5.138 2.288-9.966 6.276-13.249 5.097-4.194 6.853-11.227 4.326-17.325s-8.747-9.83-15.312-9.187c-6.378.617-18.813-3.593-18.813-17.043 0-8.284-6.724-15-15.008-15v383.467h112.467c8.285.001 15.001-6.715 15.001-14.999z" fill="#1e000a"/><path d="m197.193 154.14c-5.857-5.858-5.857-15.355 0-21.213l16.067-16.066c5.858-5.857 15.356-5.857 21.213 0s5.857 15.355 0 21.213l-16.067 16.066c-5.86 5.859-15.357 5.856-21.213 0z" fill="#823200"/><path d="m197.193 266.606c-5.858-5.858-5.858-15.355 0-21.213l16.067-16.067c5.857-5.858 15.355-5.858 21.213 0s5.858 15.355 0 21.213l-16.067 16.067c-5.858 5.86-15.357 5.857-21.213 0z" fill="#823200"/><g fill="#4b1e0a"><path d="m293.594 210.374-16.067-16.066c-5.858-5.858-5.858-15.355 0-21.213s15.355-5.858 21.213 0l16.067 16.066c5.858 5.858 5.858 15.355 0 21.213-5.859 5.859-15.356 5.856-21.213 0z"/><path d="m293.594 322.84-16.067-16.067c-5.858-5.858-5.858-15.355 0-21.213 5.857-5.858 15.355-5.858 21.213 0l16.067 16.067c5.858 5.858 5.858 15.355 0 21.213-5.859 5.859-15.357 5.857-21.213 0z"/></g></g></svg>