<svg id="Layer_1" enable-background="new 0 0 512 512" height="512" viewBox="0 0 512 512" width="512" xmlns="http://www.w3.org/2000/svg"><g><path d="m255.999 126.399c-1.587 0-3.174-.251-4.699-.754l-.195-.064c-.009-.003-.018-.006-.026-.009-11.891-3.949-72.245-24.682-92.679-45.117-8.9-8.897-13.8-20.734-13.8-33.328 0-26.044 21.052-47.127 47.127-47.127 12.045 0 23.397 4.483 32.149 12.66 8.518-7.926 19.898-12.66 32.124-12.66s23.606 4.734 32.124 12.659c8.75-8.175 20.103-12.659 32.149-12.659 26.043 0 47.127 21.052 47.127 47.127 0 12.594-4.9 24.431-13.799 33.329-20.663 20.663-81.011 41.268-92.898 45.188-1.527.503-3.116.755-4.704.755z" fill="#32b464"/><path d="m353.601 80.456c8.899-8.898 13.799-20.735 13.799-33.329 0-26.075-21.084-47.127-47.127-47.127-12.046 0-23.399 4.484-32.149 12.659-8.518-7.925-19.898-12.659-32.124-12.659v126.399c1.588 0 3.177-.252 4.703-.755 11.887-3.92 72.235-24.525 92.898-45.188z" fill="#28825a"/><path d="m256.004 367.4c-35.094 0-68.081-13.663-92.89-38.473l-62.32-62.32c-2.814-2.814-4.394-6.629-4.394-10.607 0-88.003 71.596-159.6 159.6-159.6s159.6 71.597 159.6 159.6c0 3.978-1.581 7.793-4.394 10.606l-62.32 62.32c-24.809 24.811-57.796 38.474-92.882 38.474z" fill="#f05596"/><path d="m348.886 328.927 62.32-62.32c2.813-2.813 4.394-6.628 4.394-10.606 0-88.003-71.596-159.6-159.6-159.6v270.999h.004c35.086 0 68.073-13.663 92.882-38.473z" fill="#e12364"/><path d="m256 206.733c-8.284 0-15-6.716-15-15v-16.066c0-8.284 6.716-15 15-15s15 6.716 15 15v16.066c0 8.285-6.716 15-15 15z" fill="#ff87c8"/><path d="m256 303.133c-8.284 0-15-6.716-15-15v-16.066c0-8.284 6.716-15 15-15s15 6.716 15 15v16.066c0 8.284-6.716 15-15 15z" fill="#ff87c8"/><path d="m191.733 254.934c-8.284 0-15-6.716-15-15v-16.067c0-8.284 6.716-15 15-15s15 6.716 15 15v16.067c0 8.284-6.715 15-15 15z" fill="#ff87c8"/><g fill="#f05596"><path d="m320.267 254.934c-8.284 0-15-6.716-15-15v-16.067c0-8.284 6.716-15 15-15s15 6.716 15 15v16.067c0 8.284-6.716 15-15 15z"/><path d="m271 191.733v-16.066c0-8.284-6.716-15-15-15v46.066c8.284 0 15-6.715 15-15z"/><path d="m271 288.133v-16.066c0-8.284-6.716-15-15-15v46.066c8.284 0 15-6.716 15-15z"/></g><path d="m336.333 512c-26.033 0-47.133-21.062-47.133-47.133v-6.482c-14.346 11.714-24.114 18.44-24.722 18.856-5.11 3.5-11.846 3.501-16.956 0-1.531-1.049-37.916-26.138-74.756-65.365-21.854-23.27-39.325-46.724-51.926-69.709-16.217-29.584-24.44-58.574-24.44-86.167 0-6.067 3.655-11.537 9.26-13.858 5.604-2.322 12.057-1.039 16.347 3.252l62.32 62.32c19.144 19.143 44.596 29.686 71.669 29.686 27.081 0 52.534-10.543 71.677-29.686l62.32-62.32c4.29-4.291 10.74-5.575 16.347-3.252 5.605 2.322 9.26 7.792 9.26 13.858 0 56.409-10.811 111.453-32.133 163.639v45.228c0 25.989-21.144 47.133-47.134 47.133z" fill="#823200"/><path d="m289.2 458.385v6.482c0 26.071 21.101 47.133 47.133 47.133 25.989 0 47.133-21.144 47.133-47.133v-45.228c21.324-52.186 32.134-107.23 32.134-163.639 0-6.067-3.655-11.537-9.26-13.858-5.606-2.323-12.057-1.039-16.347 3.252l-62.32 62.32c-19.142 19.142-44.593 29.685-71.673 29.686v142.467c2.962 0 5.923-.875 8.478-2.625.608-.417 10.376-7.143 24.722-18.857z" fill="#4b1e0a"/></g></svg>