<?xml version="1.0" encoding="utf-8"?>
<!-- Generator: Adobe Illustrator 24.0.0, SVG Export Plug-In . SVG Version: 6.00 Build 0)  -->
<svg version="1.1" id="Layer_1" xmlns="http://www.w3.org/2000/svg" xmlns:xlink="http://www.w3.org/1999/xlink" x="0px" y="0px"
	 viewBox="0 0 822.05 141.73" style="enable-background:new 0 0 822.05 141.73;" xml:space="preserve">
<style type="text/css">
	.st0{fill:#FFFFFF;}
	.st1{fill:#1D1D1B;}
</style>
<rect class="st0" width="822.05" height="141.73"/>
<g>
	<path class="st1" d="M363.19,41.89c1.14,0,1.61,0.64,1.61,1.49v10.37c0,2.59-1.29,3.99-4.01,3.99h-0.64
		c-0.89,0.04-1.49-0.61-1.49-1.39c0-0.71,0.58-1.38,1.45-1.36h0.92c0.65,0,0.95-0.38,0.95-1.17v-9.17h-3.55
		c-0.9,0-1.57-0.47-1.57-1.43v-2.59c0-0.89,0.6-1.42,1.42-1.42c0.83,0,1.39,0.58,1.39,1.42v1.27H363.19z"/>
	<path class="st1" d="M375.51,43.25v4.52c0,0.63-0.19,1.57-0.54,2.12l-1.32,1.79l1.88,4.27c0.29,0.77,0.11,1.36-0.65,1.71
		c-0.74,0.36-1.35,0.15-1.74-0.7l-2.99-6.82l-0.79,6.53c-0.15,1.1-0.89,1.25-1.66,1.1c-0.65-0.14-1.11-0.57-0.99-1.68l1.11-8.54
		c0.13-0.85,0.89-1.13,0.89-1.13l-1.18-2.73c-0.25-0.77-0.01-1.52,0.78-1.84c0.77-0.24,1.43,0.07,1.77,0.9l2.32,6.21
		c0.08-0.14,0.39-0.45,0.39-0.78v-4.94c0-0.79,0.43-1.45,1.39-1.45C375.07,41.8,375.51,42.46,375.51,43.25z"/>
	<path class="st1" d="M385.98,53.87c0,2.48-0.78,3.87-3.27,3.87c-0.79,0-1.49-0.64-1.49-1.49c0-0.72,0.6-1.41,1.28-1.41
		c0.25,0,0.65-0.15,0.65-0.65v-9.55h-4.15c-0.85,0-1.52-0.65-1.52-1.39c0-0.79,0.64-1.36,1.52-1.36h5.39c1.16,0,1.59,0.54,1.59,1.49
		V53.87z M380.54,48.83v10.76c0,0.82-0.57,1.46-1.43,1.46c-0.82,0-1.41-0.6-1.41-1.46V48.83c0-0.88,0.54-1.45,1.41-1.45
		C379.93,47.38,380.54,47.98,380.54,48.83z"/>
	<path class="st1" d="M393.39,41.89c0.82,0,1.54,0.57,1.54,1.39c0,0.85-0.72,1.36-1.54,1.36h-1.07c0.19,0.49,0.38,1.31,0.38,2.07
		v9.64c0,0.88-0.5,1.45-1.41,1.45c-0.81,0-1.39-0.57-1.39-1.45v-9.62c0-1.09-0.65-2.1-0.65-2.1h-0.38c-0.95,0-1.57-0.61-1.57-1.36
		c0-0.78,0.63-1.39,1.57-1.39H393.39z"/>
	<path class="st1" d="M401.35,41.89c2.39,0,3.59,1.43,3.59,3.98v10.52c0,0.85-0.6,1.43-1.42,1.43s-1.41-0.58-1.41-1.43V45.81
		c0-0.72-0.42-1.17-0.95-1.17h-1.5v11.75c0,0.85-0.54,1.43-1.42,1.43c-0.83,0-1.39-0.58-1.39-1.43V44.63
		c-0.64-0.07-1.2-0.47-1.2-1.35c0-0.78,0.74-1.39,1.7-1.39H401.35z"/>
	<path class="st1" d="M409.93,41.89c0.93,0,1.57,0.64,1.57,1.45v5.5c0,0.86-0.61,1.43-1.43,1.43c-0.81,0-1.41-0.57-1.41-1.43v-4.19
		c-1.42,0-1.96-0.56-1.96-1.36c0-0.78,0.54-1.39,1.57-1.39H409.93z"/>
	<path class="st1" d="M426.78,43.33v13.05c0,0.83-0.63,1.41-1.41,1.41c-0.83,0-1.42-0.57-1.42-1.41V44.64h-1.29
		c-1,0-1.34,2.18-1.34,3.58c0,1.98,0.88,3.88,0.88,5.93c0,1.88-0.85,3.59-3.48,3.59c-0.93,0-1.6-0.6-1.6-1.46
		c0-0.81,0.67-1.29,1.6-1.29c0.5,0,0.67-0.38,0.67-0.99c0-1.88-0.91-3.81-0.91-5.76c0-1.1,0.39-2.7,1.11-3.56
		c-1.04,0-1.57-0.68-1.57-1.34c0-0.77,0.65-1.45,1.56-1.45h5.64C426.52,41.89,426.78,42.54,426.78,43.33z"/>
	<path class="st1" d="M431.78,41.89c0.93,0,1.57,0.64,1.57,1.45v5.5c0,0.86-0.61,1.43-1.43,1.43c-0.81,0-1.41-0.57-1.41-1.43v-4.19
		c-1.42,0-1.96-0.56-1.96-1.36c0-0.78,0.54-1.39,1.57-1.39H431.78z"/>
	<path class="st1" d="M438.58,41.89c2.39,0,3.53,1.41,3.53,3.7v10.77c0,0.85-0.58,1.45-1.41,1.45c-0.86,0-1.42-0.57-1.42-1.45V45.81
		c0-0.74-0.33-1.17-0.89-1.17h-2.42c-0.95,0-1.53-0.65-1.53-1.39c0-0.68,0.58-1.36,1.53-1.36H438.58z"/>
	<path class="st1" d="M454.43,43.15v10.59c0,2.45-1.43,3.99-3.91,3.99h-5.02c-0.83,0-1.38-0.6-1.41-1.42V43.15
		c0-0.74,0.6-1.35,1.41-1.35c0.79,0,1.35,0.61,1.35,1.35v7.5c0.45,0.08,1.16-0.29,1.16-0.89v-6.61c0-0.74,0.57-1.35,1.36-1.35
		c0.83,0,1.35,0.61,1.35,1.35v6.74c0,2.05-1.45,3.38-3.87,3.52v1.64h3.58c0.99,0,1.27-0.57,1.27-1.25V43.15
		c0-0.74,0.6-1.35,1.36-1.35C453.87,41.8,454.43,42.42,454.43,43.15z"/>
	<path class="st1" d="M458.8,41.89c0.83,0,1.53,0.64,1.53,1.45v13.03c0,0.81-0.58,1.45-1.41,1.45c-0.86,0-1.41-0.6-1.41-1.45V44.64
		c-1.34,0-1.92-0.57-1.92-1.39c0-0.79,0.58-1.36,1.57-1.36H458.8z"/>
	<path class="st1" d="M470.9,43.25v4.52c0,0.63-0.19,1.57-0.54,2.12l-1.32,1.79l1.88,4.27c0.29,0.77,0.11,1.36-0.65,1.71
		c-0.74,0.36-1.35,0.15-1.74-0.7l-2.99-6.82l-0.79,6.53c-0.15,1.1-0.89,1.25-1.66,1.1c-0.65-0.14-1.11-0.57-0.99-1.68l1.11-8.54
		c0.13-0.85,0.89-1.13,0.89-1.13l-1.18-2.73c-0.25-0.77-0.01-1.52,0.78-1.84c0.76-0.24,1.43,0.07,1.77,0.9l2.32,6.21
		c0.08-0.14,0.39-0.45,0.39-0.78v-4.94c0-0.79,0.43-1.45,1.39-1.45C470.45,41.8,470.9,42.46,470.9,43.25z"/>
</g>
<g>
	<path class="st1" d="M376.22,69.31c1.34,0,2.03,0.74,2.03,2.08v6.75c0,0.26-0.18,0.41-0.45,0.43h-3.21c-0.26,0-0.43-0.17-0.43-0.43
		V70.2h-0.2c-0.29,0-0.45-0.21-0.45-0.44c0-0.24,0.15-0.45,0.45-0.45H376.22z M375.02,70.2v7.49h2.35v-6.25
		c0-0.8-0.35-1.24-1.19-1.24H375.02z"/>
	<path class="st1" d="M381.19,69.31c0.26,0,0.44,0.2,0.44,0.44v3.47c0,0.26-0.21,0.44-0.44,0.44s-0.44-0.18-0.44-0.44V70.2h-0.62
		c-0.29,0-0.45-0.19-0.45-0.44c0-0.24,0.16-0.45,0.45-0.45H381.19z"/>
	<path class="st1" d="M384.63,69.31c1.2,0,1.99,0.88,1.99,2.08v6.78c0,0.26-0.2,0.44-0.44,0.44c-0.24,0-0.43-0.17-0.43-0.44v-6.73
		c0-0.79-0.43-1.24-1.15-1.24h-1.39c-0.27,0-0.44-0.23-0.44-0.46c0-0.2,0.17-0.43,0.44-0.43H384.63z"/>
	<path class="st1" d="M392.65,69.78v8.42c0,0.25-0.22,0.43-0.44,0.43c-0.24,0-0.43-0.18-0.43-0.43V70.2h-1.27
		c-1.07,0.05-1.16,1.59-1.16,2.73c0,1.26,0.49,2.46,0.49,3.81c0,0.96-0.5,1.83-1.67,1.83h-0.14c-0.27,0-0.46-0.19-0.46-0.45
		c0-0.25,0.19-0.44,0.46-0.44h0.14c0.72,0,0.82-0.44,0.82-1.13c0-1.2-0.5-2.36-0.5-3.62c0-0.98,0.06-2.14,0.74-2.74h-0.53
		c-0.27,0-0.45-0.21-0.45-0.45c0-0.23,0.19-0.44,0.45-0.44h3.51C392.57,69.31,392.65,69.53,392.65,69.78z"/>
	<path class="st1" d="M398.74,69.69v2.99c0,0.3-0.08,0.7-0.22,0.95l-0.86,1.68l1.08,2.73c0.08,0.25,0.01,0.45-0.23,0.55
		c-0.21,0.1-0.47-0.01-0.56-0.24l-2.22-5.71l-0.68,5.66c-0.04,0.3-0.29,0.37-0.51,0.32c-0.18-0.04-0.33-0.15-0.29-0.5l0.74-5.92
		c0.06-0.47,0.32-0.69,0.32-0.69l-0.66-1.65c-0.08-0.21-0.01-0.48,0.24-0.57c0.21-0.07,0.47,0.01,0.57,0.24l1.81,4.8l0.48-1.03
		c0.11-0.23,0.15-0.48,0.15-0.76v-2.84c0-0.24,0.16-0.44,0.42-0.44C398.55,69.25,398.74,69.45,398.74,69.69z"/>
	<path class="st1" d="M407.47,69.78v8.42c0,0.25-0.22,0.43-0.44,0.43c-0.24,0-0.43-0.18-0.43-0.43V70.2h-1.27
		c-1.07,0.05-1.16,1.59-1.16,2.73c0,1.26,0.49,2.46,0.49,3.81c0,0.96-0.5,1.83-1.67,1.83h-0.14c-0.27,0-0.46-0.19-0.46-0.45
		c0-0.25,0.19-0.44,0.46-0.44h0.14c0.72,0,0.82-0.44,0.82-1.13c0-1.2-0.5-2.36-0.5-3.62c0-0.98,0.06-2.14,0.74-2.74h-0.53
		c-0.27,0-0.45-0.21-0.45-0.45c0-0.23,0.19-0.44,0.45-0.44h3.51C407.39,69.31,407.47,69.53,407.47,69.78z"/>
	<path class="st1" d="M410.52,69.31c0.26,0,0.44,0.2,0.44,0.44v3.47c0,0.26-0.21,0.44-0.44,0.44s-0.44-0.18-0.44-0.44V70.2h-0.62
		c-0.29,0-0.45-0.19-0.45-0.44c0-0.24,0.16-0.45,0.45-0.45H410.52z"/>
	<path class="st1" d="M413.93,69.31c0.26,0,0.44,0.2,0.44,0.44v3.47c0,0.26-0.21,0.44-0.44,0.44s-0.44-0.18-0.44-0.44V70.2h-0.62
		c-0.29,0-0.45-0.19-0.45-0.44c0-0.24,0.16-0.45,0.45-0.45H413.93z"/>
	<path class="st1" d="M418.8,69.75v6.73c0,1.16-0.48,2.1-2.03,2.1h-0.96c-0.28,0-0.46-0.22-0.46-0.46c0-0.23,0.18-0.43,0.46-0.43
		h0.94c0.78,0,1.18-0.56,1.18-1.26V70.2h-0.98c-0.29,0-0.45-0.19-0.45-0.44c0-0.24,0.16-0.45,0.45-0.45h1.42
		C418.63,69.31,418.8,69.51,418.8,69.75z"/>
	<path class="st1" d="M424.29,77.69c0.31,0,0.47,0.19,0.47,0.45c0,0.24-0.15,0.44-0.47,0.44h-3.68c-0.28,0-0.45-0.2-0.45-0.45
		c0-0.24,0.17-0.44,0.45-0.44h2.3v-6.25c0-0.65-0.35-1.24-1.18-1.24h-0.83c-0.32,0-0.47-0.19-0.47-0.44c0-0.24,0.17-0.45,0.47-0.45
		h0.85c0.67,0,2.03,0.27,2.03,2.08v6.29H424.29z"/>
	<path class="st1" d="M426.88,69.31c0.24,0,0.43,0.2,0.43,0.44v8.43c0,0.25-0.2,0.44-0.44,0.44c-0.24,0-0.43-0.18-0.43-0.44V70.2
		h-0.5c-0.28,0-0.45-0.2-0.45-0.46c0-0.24,0.17-0.43,0.45-0.43H426.88z"/>
	<path class="st1" d="M435.58,77.69c0.31,0,0.47,0.19,0.47,0.45c0,0.24-0.15,0.44-0.47,0.44h-3.68c-0.28,0-0.45-0.2-0.45-0.45
		c0-0.24,0.17-0.44,0.45-0.44h2.3v-6.25c0-0.65-0.35-1.24-1.18-1.24h-0.83c-0.32,0-0.47-0.19-0.47-0.44c0-0.24,0.17-0.45,0.47-0.45
		h0.85c0.67,0,2.03,0.27,2.03,2.08v6.29H435.58z"/>
	<path class="st1" d="M438.16,69.31c0.24,0,0.43,0.2,0.43,0.44v8.43c0,0.25-0.2,0.44-0.44,0.44c-0.24,0-0.43-0.18-0.43-0.44V70.2
		h-0.5c-0.28,0-0.45-0.2-0.45-0.46c0-0.24,0.17-0.43,0.45-0.43H438.16z"/>
	<path class="st1" d="M443.1,74.72l1.35,3.26c0.12,0.34-0.02,0.59-0.35,0.59h-3.44c-0.25,0-0.43-0.21-0.43-0.44s0.18-0.45,0.43-0.45
		h2.74l-3.22-7.84c-0.09-0.23,0.02-0.49,0.24-0.57c0.21-0.07,0.5,0.01,0.57,0.24l1.8,4.37c0.62-0.28,0.93-0.78,0.93-1.56V70.2h-0.49
		c-0.3,0-0.46-0.23-0.46-0.46c0-0.24,0.16-0.43,0.46-0.43h0.9c0.33,0,0.46,0.2,0.46,0.47c0,0,0,2.61-0.01,2.61
		C444.59,73.5,444.11,74.2,443.1,74.72z"/>
	<path class="st1" d="M447.51,69.31c0.26,0,0.44,0.2,0.44,0.44v3.47c0,0.26-0.21,0.44-0.44,0.44s-0.44-0.18-0.44-0.44V70.2h-0.62
		c-0.29,0-0.45-0.19-0.45-0.44c0-0.24,0.16-0.45,0.45-0.45H447.51z"/>
	<path class="st1" d="M453.57,69.31c0.27,0,0.43,0.19,0.43,0.44v6.73c0,1.26-0.71,2.1-1.94,2.1h-2.23c-0.29,0-0.45-0.21-0.45-0.45
		c0-0.23,0.16-0.44,0.45-0.44h1.06c-0.8-7.49-0.8-7.5-0.8-7.49h-0.51c-0.27,0-0.45-0.21-0.45-0.44c0-0.24,0.2-0.46,0.45-0.45h0.9
		c0.26,0,0.42,0.2,0.43,0.44l0.85,7.94h0.19c0.81,0,1.19-0.5,1.19-1.26V70.2h-0.5c-0.25,0-0.45-0.21-0.45-0.44
		c0-0.24,0.2-0.45,0.45-0.45H453.57z"/>
</g>
</svg>
